PathFileType	4	(X/Y/Z)	OpenSim_Sub07_EMGStiffKnee_Magnet.trc
DataRate	CameraRate	NumFrames	NumMarkers	Units	OrigDataRate	OrigDataStartFrame	OrigNumFrames
100	100	40	8	m	100	924	7388
Frame#	Time	torso_imu_offset_imu	pelvis_imu_offset_imu	tibia_r_imu_offset_imu	femur_r_imu_offset_imu	tibia_l_imu_offset_imu	femur_l_imu_offset_imu	toes_r_imu_offset_imu	toes_l_imu_offset_imu
				X1	Y1	Z1	X2	Y2	Z2	X3	Y3	Z3	X4	Y4	Z4	X5	Y5	Z5	X6	Y6	Z6	X7	Y7	Z7	X8		Y8	Z8	

924	9.23000000	0.92593778	0.24052176	0.05659584	-0.71491767	0.20636748	-0.62229234	-0.21707899	-0.79798804	0.03505902	-0.87437010	-0.04243343	-0.07613273	-0.60821466	0.52677731	0.25150810	-0.65623677	0.24550311	0.49283557	-0.75800356	-0.45321073	0.04150831	-0.77165342	-0.19007339	-0.40665933
925	9.24000000	0.92394070	0.23872114	0.05553121	-0.71343305	0.20891385	-0.62161323	-0.24494747	-0.78439106	0.03395833	-0.87057185	-0.03176287	-0.07550023	-0.60469338	0.52746497	0.25560832	-0.65040037	0.24975978	0.49584874	-0.74635341	-0.44896173	-0.00448870	-0.77369944	-0.18849356	-0.39615375
926	9.25000000	0.92191904	0.23744860	0.05950214	-0.70953778	0.20590614	-0.62491648	-0.28552888	-0.77514637	0.04629014	-0.87093584	-0.02586591	-0.07898949	-0.59905700	0.53306205	0.25552911	-0.65395475	0.24971417	0.50462296	-0.73932066	-0.44554034	-0.05381401	-0.78017630	-0.18880889	-0.39496517
927	9.26000000	0.92761019	0.23515855	0.06209952	-0.71053893	0.20822367	-0.62910550	-0.32255781	-0.76223869	0.06685227	-0.87445961	-0.02492477	-0.07924978	-0.59390635	0.53526365	0.25455649	-0.65425640	0.25213180	0.50664234	-0.73300621	-0.43687322	-0.09272290	-0.78131211	-0.19297707	-0.38998270
928	9.27000000	0.92614163	0.24134368	0.06268770	-0.70504693	0.20798401	-0.62580281	-0.35011769	-0.74447663	0.07644213	-0.87078720	-0.02204622	-0.07694972	-0.59231537	0.54232323	0.25430082	-0.64762503	0.25517350	0.50580569	-0.71824800	-0.42267816	-0.13129587	-0.78880027	-0.19004490	-0.39448898
929	9.28000000	0.92697559	0.23762958	0.06329215	-0.70783091	0.20783557	-0.62876142	-0.38806488	-0.72499874	0.09050976	-0.87407613	-0.02094816	-0.08016747	-0.59091268	0.55286065	0.25767142	-0.64294289	0.26011621	0.50245739	-0.70162759	-0.41229227	-0.17374852	-0.78451224	-0.18868987	-0.38666191
930	9.29000000	0.92553770	0.23173980	0.06263133	-0.71045373	0.20884669	-0.63110356	-0.42405091	-0.70342540	0.10407531	-0.87195768	-0.02226262	-0.08113990	-0.58621025	0.55160832	0.26665373	-0.63665513	0.26310844	0.50394759	-0.69102771	-0.39737587	-0.20474062	-0.78143717	-0.19396558	-0.37510437
931	9.30000000	0.92665045	0.23331216	0.06489022	-0.70694566	0.20980973	-0.62830103	-0.45949230	-0.67923031	0.10187462	-0.87084731	-0.02665285	-0.07692949	-0.58181661	0.55640941	0.25893426	-0.63396274	0.26723557	0.51010397	-0.67949082	-0.37658386	-0.23286803	-0.78561839	-0.19279861	-0.37188144
932	9.31000000	0.92742193	0.23535674	0.06323526	-0.70604463	0.21153974	-0.63137962	-0.49434079	-0.65577492	0.09318465	-0.87174763	-0.02222527	-0.07803447	-0.57594712	0.56153486	0.26157610	-0.63016335	0.27232619	0.51057023	-0.66753626	-0.35940360	-0.25981354	-0.78626286	-0.19535281	-0.36304694
933	9.32000000	0.92540695	0.23915076	0.06185309	-0.70179441	0.21501078	-0.63338569	-0.52440052	-0.63451565	0.08097548	-0.87279388	-0.02548781	-0.07734609	-0.56812105	0.56539389	0.26115020	-0.62426842	0.27536632	0.51697327	-0.66290842	-0.34040739	-0.28395470	-0.78919639	-0.20213532	-0.36084769
934	9.33000000	0.92387441	0.23766356	0.06130749	-0.70094238	0.21345742	-0.63214767	-0.54833405	-0.61206278	0.05692249	-0.87003743	-0.03073150	-0.07886593	-0.56965114	0.57420703	0.25991363	-0.62520268	0.27757525	0.52065362	-0.65772161	-0.31978080	-0.31151512	-0.78015902	-0.20056409	-0.35567210
935	9.34000000	0.92333410	0.22915752	0.06524492	-0.70586895	0.21154218	-0.63431671	-0.57228178	-0.59091050	0.03942815	-0.87128296	-0.03355737	-0.08375543	-0.56462037	0.57635283	0.26201304	-0.62468395	0.28107868	0.51176791	-0.65184315	-0.30552005	-0.34056223	-0.78232312	-0.20138524	-0.34683908
936	9.35000000	0.92902250	0.23520544	0.06766931	-0.70838040	0.20806466	-0.63363356	-0.59026454	-0.57258779	0.02798190	-0.86906715	-0.04484395	-0.08817111	-0.55967655	0.57950574	0.26572742	-0.61630637	0.29356020	0.51338499	-0.63730574	-0.29098470	-0.37131174	-0.78197232	-0.20611428	-0.34092702
937	9.36000000	0.92706238	0.23052314	0.06393448	-0.70389395	0.21198693	-0.63395139	-0.60667644	-0.55790293	0.00957964	-0.86852235	-0.05105301	-0.09095338	-0.55697089	0.58559675	0.26610879	-0.61460901	0.29133522	0.52731223	-0.62317458	-0.28365815	-0.40099539	-0.77357221	-0.21066718	-0.33860997
938	9.37000000	0.92996434	0.22862551	0.06393794	-0.70239313	0.21296975	-0.63390196	-0.62700162	-0.54002432	-0.00423004	-0.86597665	-0.05995727	-0.08986833	-0.55374447	0.59360360	0.26287687	-0.61159326	0.28438000	0.52713707	-0.60970655	-0.27592701	-0.42116701	-0.77235186	-0.20955914	-0.33709191
939	9.38000000	0.92699933	0.23044120	0.06216093	-0.70475682	0.20566976	-0.63396339	-0.64290922	-0.52063842	-0.02031658	-0.86331817	-0.07116165	-0.09049760	-0.54943661	0.59749513	0.26523917	-0.60854288	0.29155653	0.53040259	-0.60070403	-0.27307486	-0.44328528	-0.77194693	-0.21100287	-0.33340623
940	9.39000000	0.93152448	0.22679249	0.06135659	-0.70606197	0.21221617	-0.63274999	-0.65043661	-0.50409717	-0.02310852	-0.86216986	-0.08032472	-0.09226349	-0.53960822	0.60554414	0.26362992	-0.60735057	0.29256883	0.54132937	-0.58817075	-0.27216081	-0.46511622	-0.77002540	-0.21166152	-0.32955949
941	9.40000000	0.93634391	0.22691465	0.06096463	-0.70243002	0.20953568	-0.62622906	-0.65896553	-0.49317988	-0.03109104	-0.86539764	-0.08837093	-0.08912570	-0.53810445	0.60969380	0.25962174	-0.60126576	0.29691873	0.53347288	-0.57849345	-0.27342988	-0.47131378	-0.76426710	-0.20907713	-0.32343050
942	9.41000000	0.93118417	0.22344651	0.05647784	-0.70231243	0.20605762	-0.62717813	-0.66579920	-0.48216918	-0.04067932	-0.86367531	-0.09358644	-0.08157575	-0.53613230	0.61811263	0.25689149	-0.60264673	0.29502889	0.53574328	-0.56693293	-0.26999486	-0.49268983	-0.76503418	-0.20650748	-0.32389894
943	9.42000000	0.93427588	0.21964350	0.05355706	-0.69999950	0.20793693	-0.63621204	-0.67413150	-0.46886015	-0.04034151	-0.85839017	-0.10066997	-0.08675000	-0.52470223	0.62469056	0.25412934	-0.59228078	0.28777084	0.53349245	-0.56134049	-0.26811044	-0.50435484	-0.75768554	-0.20586020	-0.32504302
944	9.43000000	0.93266089	0.21969903	0.05822914	-0.70253373	0.20389568	-0.63394546	-0.67588951	-0.46474439	-0.03666381	-0.85981520	-0.10464785	-0.09079417	-0.51563063	0.63142538	0.25323288	-0.59362329	0.29482057	0.53523769	-0.55934528	-0.26175240	-0.51023460	-0.75885610	-0.20812049	-0.32690569
945	9.44000000	0.93105096	0.22078966	0.05056458	-0.70441977	0.20136814	-0.63100432	-0.67533138	-0.46822519	-0.03013234	-0.85692209	-0.10700854	-0.08193738	-0.50472492	0.64178116	0.25294686	-0.59949024	0.29767095	0.53361900	-0.55653733	-0.25271309	-0.51508453	-0.75978031	-0.20602181	-0.32957963
946	9.45000000	0.93275188	0.21653012	0.04738468	-0.70230366	0.20748576	-0.63019779	-0.67230215	-0.47009743	-0.03049705	-0.85709537	-0.10277316	-0.08001233	-0.49774088	0.64751210	0.24242728	-0.59615059	0.30349717	0.53016833	-0.56116450	-0.24263156	-0.51715887	-0.76098611	-0.20141496	-0.32561904
947	9.46000000	0.93334135	0.21561422	0.04582443	-0.70326921	0.20626179	-0.63105241	-0.67107913	-0.48148725	-0.02118612	-0.86153253	-0.10187567	-0.07637360	-0.48930679	0.65580128	0.24384103	-0.59525396	0.30467587	0.53317569	-0.56423799	-0.23534788	-0.51170219	-0.76342488	-0.19652041	-0.32744873
948	9.47000000	0.93685805	0.21470988	0.04308633	-0.70094884	0.19926431	-0.63794641	-0.66535398	-0.49300018	-0.00771454	-0.85762400	-0.10633202	-0.07150745	-0.47987257	0.66773106	0.24561983	-0.59897857	0.30840684	0.52767887	-0.57243966	-0.22718827	-0.50102683	-0.76425188	-0.19463483	-0.32688433
949	9.48000000	0.93867095	0.20965362	0.04084686	-0.69759411	0.20106768	-0.63610955	-0.65750272	-0.49930094	0.00448907	-0.85762527	-0.10751412	-0.06209718	-0.47266869	0.67641145	0.23661934	-0.59897975	0.31081427	0.52560392	-0.58538025	-0.22959411	-0.48775099	-0.76301922	-0.19196555	-0.31903449
950	9.49000000	0.93353916	0.21074082	0.03606936	-0.69920103	0.19495334	-0.63387110	-0.65153224	-0.50262120	0.01687131	-0.85354720	-0.11172003	-0.04996337	-0.45972679	0.68488472	0.23564586	-0.60261069	0.31239835	0.52091598	-0.59713804	-0.23650414	-0.46963874	-0.77199162	-0.18193825	-0.31777850
951	9.50000000	0.93830092	0.20995211	0.04192920	-0.70002221	0.18860968	-0.63471728	-0.64928091	-0.50385501	0.02396894	-0.85424609	-0.12168525	-0.03462859	-0.44317513	0.69949446	0.23444052	-0.60115615	0.31480412	0.51922683	-0.60757794	-0.23669658	-0.45405401	-0.77718002	-0.17407447	-0.30925194
952	9.51000000	0.94013634	0.20687945	0.03978290	-0.70099188	0.18862591	-0.63384063	-0.64487910	-0.50959424	0.02625344	-0.86011755	-0.12551956	-0.03013481	-0.43232252	0.70394997	0.23114391	-0.60661840	0.31213509	0.51251269	-0.62111676	-0.23470534	-0.43149347	-0.78413962	-0.16844522	-0.29487813
953	9.52000000	0.93780032	0.20257377	0.03051789	-0.70184466	0.19003959	-0.64092253	-0.64491448	-0.51349104	0.03398269	-0.85161192	-0.12963263	-0.02914694	-0.42104810	0.71101331	0.22817461	-0.61686423	0.31466395	0.50852390	-0.63258850	-0.23177078	-0.41310727	-0.79691631	-0.15914092	-0.28223041
954	9.53000000	0.94021181	0.20291795	0.03020416	-0.69921241	0.18068502	-0.63885115	-0.64557374	-0.51454872	0.04928193	-0.84990608	-0.14265062	-0.02824123	-0.40214605	0.72544042	0.22184421	-0.60913692	0.31680119	0.50374488	-0.64209385	-0.23145194	-0.39731099	-0.80592624	-0.15332068	-0.26605146
955	9.54000000	0.94268024	0.20299682	0.02569773	-0.70107271	0.18182484	-0.63178333	-0.63799562	-0.52249847	0.06079218	-0.84799873	-0.14762652	-0.02882392	-0.39079744	0.73579523	0.21751061	-0.61522557	0.31425047	0.49967823	-0.64602609	-0.23732180	-0.38225779	-0.81443355	-0.14898853	-0.23923551
956	9.55000000	0.93882378	0.19849804	0.02567880	-0.70073966	0.18558916	-0.63276525	-0.63253706	-0.52164373	0.07404174	-0.84532449	-0.15520409	-0.02704212	-0.37479162	0.74913473	0.20515198	-0.62927216	0.30966640	0.49355668	-0.65221530	-0.23559747	-0.37178184	-0.82584010	-0.13737487	-0.20741847
957	9.56000000	0.94191263	0.19800691	0.02698736	-0.69711591	0.17984473	-0.63506369	-0.62796130	-0.52594264	0.08380451	-0.84885567	-0.16037304	-0.02521277	-0.35443660	0.75604345	0.19634640	-0.63230881	0.30578842	0.48962568	-0.65533611	-0.23776912	-0.36595402	-0.84001410	-0.13649963	-0.17499704
958	9.57000000	0.94193988	0.19620729	0.02489248	-0.69839479	0.18024650	-0.63543112	-0.62154177	-0.53667387	0.08847099	-0.84723282	-0.15582952	-0.02145353	-0.33448921	0.76693975	0.18388835	-0.64185570	0.30347369	0.48283832	-0.65630969	-0.23735689	-0.35280885	-0.85023891	-0.13078690	-0.13593494
959	9.58000000	0.93858950	0.19309712	0.02468467	-0.70095359	0.17742152	-0.63490751	-0.61622018	-0.54443868	0.09173875	-0.84772829	-0.15789915	-0.02341753	-0.31639058	0.77155256	0.16979226	-0.65411488	0.29202511	0.47186035	-0.65650328	-0.23816961	-0.34812883	-0.84976852	-0.12611218	-0.09277470
960	9.59000000	0.94201925	0.19392464	0.02316404	-0.70107713	0.17635990	-0.63931351	-0.60787546	-0.54753593	0.09585319	-0.84906840	-0.16412642	-0.02347257	-0.30041925	0.78184293	0.17048529	-0.65526196	0.28393212	0.47382669	-0.65505221	-0.24036772	-0.34604142	-0.85702946	-0.12240708	-0.04962242
961	9.60000000	0.93972029	0.19268765	0.02667539	-0.70020558	0.17650405	-0.63810835	-0.60637150	-0.55009493	0.10410366	-0.84064041	-0.17162043	-0.01578709	-0.28364927	0.79406741	0.16593588	-0.66046435	0.27972676	0.46686735	-0.65605381	-0.24207433	-0.34387788	-0.86004718	-0.11399416	-0.01007396
962	9.61000000	0.94344758	0.19133948	0.02829128	-0.70178554	0.17056741	-0.63731657	-0.60003844	-0.55392644	0.11079328	-0.84135630	-0.17973002	-0.01395791	-0.26701698	0.80040857	0.15556511	-0.67400955	0.27113726	0.45906394	-0.65649824	-0.24551553	-0.33779084	-0.85334689	-0.11141772	0.02730262
963	9.62000000	0.93835794	0.19072461	0.03084821	-0.70158334	0.16655610	-0.63672281	-0.59697998	-0.55723000	0.11455497	-0.84205445	-0.19400719	-0.02108226	-0.24571933	0.80117694	0.14679530	-0.68215210	0.26483123	0.45933521	-0.65000246	-0.24787874	-0.33858608	-0.85456729	-0.10556879	0.05435431
